<svg id="Calque_1" data-name="Calque 1" xmlns="http://www.w3.org/2000/svg" viewBox="0 0 2819.34 537.91"><defs><style>.cls-1{fill:#88559e;}.cls-2{fill:#1d1d1b;}</style></defs><path class="cls-1" d="M544,.85V225.6c-147,0-266.26,119.21-266.26,266.26H200.3A147.3,147.3,0,0,0,53,344.56V262.72c144.63,0,261.87-117.25,261.87-261.87Z"/><path class="cls-1" d="M18.36,381.61h23A121.32,121.32,0,0,1,162.7,503v19.69A230.46,230.46,0,0,0,80,537.89L3.87,461.72A227.12,227.12,0,0,0,18.36,381.61Z"/><polygon class="cls-2" points="1138.17 0.56 1138.17 532.11 1019.93 532.11 1019.93 238.17 904.77 417.67 826.47 417.67 711.24 237.15 711.24 532.11 593.79 532.11 593.79 0.56 678.11 0.56 865.92 293.11 1053.06 0.56 1138.17 0.56"/><polygon class="cls-2" points="1621.54 429.71 1621.54 532.11 1239.78 532.11 1239.78 0.56 1617.74 0.56 1617.74 102.23 1358.02 102.23 1358.02 211.37 1595.16 211.37 1595.16 310.03 1358.02 310.03 1358.02 429.71 1621.54 429.71"/><path class="cls-2" d="M1961.74,309.19a190.35,190.35,0,0,0,49.81-15.72q40.65-19.61,63.24-54.63t22.59-81.68q0-45.9-22.59-81.31t-62.52-55.36Q1972.34.62,1919.69.55H1702.85V532.11H1821V313h12.41L1992,532.11h140Zm-56.38-83.48H1821V92.41h85.11q35.33,0,54.21,18.85t18.79,47.41q0,30.9-19.21,49T1905.36,225.71Z"/><path class="cls-2" d="M2183.2,532.12V.57h118.2V532.12Z"/><polygon class="cls-2" points="2818.67 0.56 2818.67 103.73 2652.24 103.73 2652.24 532.11 2534.07 532.11 2534.07 103.73 2367.64 103.73 2367.64 0.56 2818.67 0.56"/></svg>